<?xml version="1.0" encoding="UTF-8"?>
<svg xmlns="http://www.w3.org/2000/svg" viewBox="0 0 800 800">
  <circle cx="400" cy="400" r="380" fill="white"/>
  <g transform="translate(197, 147) scale(0.65)">
    <path d="M34.79,55.07c4.98-2.48,24.25-15.27,27.86-9.54-.03,15.51,14.36,22.81,23.42,34.72,15.64,20.55,24.58,44.83,36.36,67.2,10.35,19.66,24.81,37.68,30.15,59.81,5.6,1.13,8.9-3.75,13.22-5.73,31.84-14.59,86.27-37.15,120.54-37.14,28.05,0,56.97,2.57,85.14,2.85,29.46.3,68.2,11.77,94.1,25.85,4.15,2.26,7.92,5.36,11.22,8.73,4.34-6.99,8.98-14.45,12.76-21.73,19.59-37.73,64.12-120.43,69.72-159.2.91-6.29-.93-12.81.99-19,2.91-4.13,22.31-.72,26.65,2.64,2.67,3.32,3.64,26.87,3.45,32.76-.87,27.16-9.61,64.04-8.73,89.16.38,10.93,4.48,26.28,5.06,38.17,1.41,29.02-1.05,53.36,4.14,83.06,6.88,39.36,7.3,79.95,10.4,120.41,5.41,70.53,7.14,134.47,5.28,205.09-1.26,47.63-68.69,104.57-108.77,123.79-45.27,21.7-76.35,30.55-126.13,35.57-34.01,3.43-52.36-2.75-83.86-3.86-13.07-.46-28.78,3.42-41.62,3.75-73.88,1.86-143.07,1.57-202.49-46.56-23.62-19.14-29.8-43.65-34.99-72.34-15.89-87.8-6.32-189.09.33-278.12,5.51-73.75,22.26-147.78,27.2-219.88,1.39-20.29-2.68-40.25-1.4-60.46ZM211.95,311.28c-18.95,3.92-54.69,49.27-62.18,66.8-13.51,31.63-8.16,63.32,23.32,80.24,57.15,30.72,89.98-48.17,95.45-92.27,3.95-31.82-.17-24.39-21.46-39.86-13.03-9.47-13.41-19.41-35.13-14.91ZM391.83,313.09c-10.44,2.11-18.17,15.97-22.19,25.06-14.79,33.49-33.3,83.67-1.94,112.69,11.81,10.93,36.65,10.9,49.98,2.57,23.32-14.58,43.69-71.77,40.13-98.12-1.16-8.57-18.79-15.68-26.09-21.15-12.45-9.32-21.99-24.67-39.89-21.05Z"/>
  </g>
</svg>
